# xmcd CD database file
#
# Track frame offsets:
#	150
#	32776
#	50564
#	65961
#	93080
#	109779
#	130576
#	149338
#	167412
#	194541
#	207511
#	231755
#
# Disc length: 3224 seconds
#
# Revision: 0
# Processed by: cddbd v1.5.2PL0 Copyright (c) Steve Scherf et al.
# Submitted via: CDex 1.70beta2
#
DISCID=ad0c960c
DTITLE=John Taylor - Phases
DYEAR=2009
DGENRE=Jazz
TTITLE0=Spring
TTITLE1=Fedora
TTITLE2=Ritual
TTITLE3=Summer
TTITLE4=For Carol
TTITLE5=Frolics
TTITLE6=Autumn
TTITLE7=Foil
TTITLE8=Eulogy
TTITLE9=Prelude N. 3
TTITLE10=Winter
TTITLE11=Duetto
EXTD=YEAR: 2009
EXTT0=
EXTT1=
EXTT2=
EXTT3=
EXTT4=
EXTT5=
EXTT6=
EXTT7=
EXTT8=
EXTT9=
EXTT10=
EXTT11=
PLAYORDER=
